<svg xmlns="http://www.w3.org/2000/svg" width="27.508" height="27.611" viewBox="0 0 27.508 27.611"><defs><style>.a{fill:#fff;}</style></defs><path class="a" d="M25.833,7.131,25.7,6.9a13.792,13.792,0,0,0-23.9,0l-.132.228A13.706,13.706,0,0,0,0,12.655v2.3a13.7,13.7,0,0,0,1.674,5.523l.132.229a13.792,13.792,0,0,0,23.9,0l.132-.229a13.7,13.7,0,0,0,1.674-5.523v-2.3A13.7,13.7,0,0,0,25.833,7.131Zm-5.2,5.524A27.4,27.4,0,0,0,20.29,9.2h4a11.4,11.4,0,0,1,.909,3.451ZM13.754,25.31c-1.3,0-2.69-1.772-3.6-4.6h7.2c-.909,2.83-2.3,4.6-3.6,4.6Zm-4.183-6.9a24.181,24.181,0,0,1-.393-3.451h9.151a24.182,24.182,0,0,1-.393,3.451Zm-.393-5.752A24.181,24.181,0,0,1,9.571,9.2h8.365a24.182,24.182,0,0,1,.393,3.451ZM13.754,2.3c1.3,0,2.69,1.773,3.6,4.6h-7.2c.908-2.829,2.3-4.6,3.6-4.6Zm9.182,4.6H19.788a15.343,15.343,0,0,0-1.5-3.666A11.562,11.562,0,0,1,22.935,6.9ZM9.217,3.237A15.343,15.343,0,0,0,7.719,6.9H4.572A11.561,11.561,0,0,1,9.217,3.237Zm-6,5.967h4a27.452,27.452,0,0,0-.342,3.451H2.307A11.388,11.388,0,0,1,3.216,9.2Zm3.658,5.752a27.347,27.347,0,0,0,.342,3.451h-4a11.4,11.4,0,0,1-.909-3.451Zm-2.3,5.752H7.719a15.366,15.366,0,0,0,1.5,3.666,11.563,11.563,0,0,1-4.644-3.666ZM18.29,24.374a15.3,15.3,0,0,0,1.5-3.666h3.147a11.555,11.555,0,0,1-4.645,3.666Zm6-5.967h-4a27.5,27.5,0,0,0,.342-3.451H25.2A11.421,11.421,0,0,1,24.291,18.407Zm0,0" transform="translate(0.001 0)"/></svg>