<svg xmlns="http://www.w3.org/2000/svg" width="30.765" height="30.766" viewBox="0 0 30.765 30.766"><defs><style>.a{fill:#fff;}</style></defs><g transform="translate(0 0)"><path class="a" d="M219.509,213.254A6.254,6.254,0,1,1,213.254,207,6.254,6.254,0,0,1,219.509,213.254Zm0,0" transform="translate(-197.872 -197.872)"/><path class="a" d="M165.494,139.8a6.213,6.213,0,0,0-3.561-3.561,10.38,10.38,0,0,0-3.484-.646c-1.979-.09-2.572-.11-7.582-.11s-5.6.019-7.582.109a10.388,10.388,0,0,0-3.484.646,6.216,6.216,0,0,0-3.561,3.561,10.385,10.385,0,0,0-.646,3.484c-.09,1.978-.11,2.572-.11,7.582s.019,5.6.11,7.582a10.381,10.381,0,0,0,.646,3.484A6.213,6.213,0,0,0,139.8,165.5a10.369,10.369,0,0,0,3.484.646c1.978.09,2.571.109,7.582.109s5.6-.019,7.582-.109a10.37,10.37,0,0,0,3.484-.646,6.213,6.213,0,0,0,3.561-3.561,10.388,10.388,0,0,0,.646-3.484c.09-1.979.109-2.572.109-7.582s-.019-5.6-.109-7.582A10.369,10.369,0,0,0,165.494,139.8Zm-14.627,20.7a9.635,9.635,0,1,1,9.635-9.635A9.635,9.635,0,0,1,150.867,160.506Zm10.016-17.4a2.252,2.252,0,1,1,2.252-2.252A2.252,2.252,0,0,1,160.883,143.107Zm0,0" transform="translate(-135.485 -135.489)"/><path class="a" d="M4.406,0A4.406,4.406,0,1,0,8.811,4.406,4.406,4.406,0,0,0,4.406,0ZM6.92,5.449a1.856,1.856,0,0,1-.118.614,1.294,1.294,0,0,1-.74.74,1.857,1.857,0,0,1-.614.118c-.27.012-.356.015-1.043.015s-.773,0-1.043-.015A1.857,1.857,0,0,1,2.749,6.8a1.294,1.294,0,0,1-.74-.74,1.856,1.856,0,0,1-.118-.614c-.012-.27-.015-.356-.015-1.043s0-.773.015-1.043a1.856,1.856,0,0,1,.118-.614,1.294,1.294,0,0,1,.74-.74,1.858,1.858,0,0,1,.614-.118c.27-.012.356-.015,1.043-.015s.773,0,1.043.015a1.858,1.858,0,0,1,.614.117,1.294,1.294,0,0,1,.74.74,1.856,1.856,0,0,1,.118.614c.012.27.015.356.015,1.043S6.933,5.179,6.92,5.449Zm0,0" transform="translate(10.977 10.977)"/></g></svg>