<svg xmlns="http://www.w3.org/2000/svg" width="24.836" height="18.627" viewBox="0 0 24.836 18.627"><defs><style>.a{fill:#fff;}</style></defs><g transform="translate(0 0)"><path class="a" d="M24.837,76.174a3.077,3.077,0,0,1-.4,1.493L16.6,68.893l7.757-6.787a3.082,3.082,0,0,1,.484,1.649V76.174ZM12.418,70.486l10.793-9.444a3.066,3.066,0,0,0-1.48-.391H3.1a3.055,3.055,0,0,0-1.479.391Zm3.009-.571-2.5,2.187a.779.779,0,0,1-1.022,0l-2.5-2.188L1.467,78.8a3.067,3.067,0,0,0,1.637.478H21.732a3.067,3.067,0,0,0,1.637-.478ZM.484,62.106A3.082,3.082,0,0,0,0,63.756V76.174a3.067,3.067,0,0,0,.4,1.493L8.24,68.892Z" transform="translate(0 -60.651)"/></g></svg>