<svg xmlns="http://www.w3.org/2000/svg" width="30.477" height="30.478" viewBox="0 0 30.477 30.478"><defs><style>.a{fill:#fff;}</style></defs><g transform="translate(0 0)"><path class="a" d="M15.239,0A15.239,15.239,0,1,0,30.477,15.239,15.256,15.256,0,0,0,15.239,0Zm6.8,11.751c.007.151.01.3.01.455a9.977,9.977,0,0,1-15.356,8.4,7.082,7.082,0,0,0,5.193-1.452,3.511,3.511,0,0,1-3.277-2.436,3.521,3.521,0,0,0,1.584-.059,3.508,3.508,0,0,1-2.813-3.439c0-.015,0-.03,0-.044a3.493,3.493,0,0,0,1.588.438A3.513,3.513,0,0,1,7.881,8.934,9.959,9.959,0,0,0,15.11,12.6a3.51,3.51,0,0,1,5.977-3.2,7,7,0,0,0,2.228-.851,3.523,3.523,0,0,1-1.544,1.941,6.973,6.973,0,0,0,2.015-.552A7.055,7.055,0,0,1,22.037,11.751Z"/></g></svg>